<svg id="Layer_1" data-name="Layer 1" xmlns="http://www.w3.org/2000/svg" viewBox="0 0 1000 1000"><defs><style>.cls-1{fill:#562d2c;}.cls-2{fill:#edb698;}.cls-3{fill:#4e3f46;}.cls-4{fill:#d6c2dd;}.cls-5{fill:#fcebd6;}.cls-6{fill:#8bccb2;}.cls-7{fill:#f6c093;}.cls-8{fill:#70ab96;}.cls-9{fill:#f5bead;}.cls-10{fill:#fafaf9;}.cls-11{fill:#f7e6d2;}.cls-12{fill:#b9a2be;}.cls-13{fill:#ecc35d;}.cls-14{fill:#da7268;}.cls-15{fill:#969aaf;}.cls-16{fill:#848896;}.cls-17{fill:#60555f;}.cls-18{fill:#f6c3bb;}</style></defs><path class="cls-1" d="M731.22,703c-2.07,1-2.5,2.88-3.18,4.56-4.19,10.31-11.76,17.92-20,24.94a40.25,40.25,0,0,1-18.35,8.61c-1.53.31-3.4,1-4.64.41-6.67-3-11.94.56-17.64,3a47.93,47.93,0,0,1-20.81,3.64c-8.66-.31-10.37-1.68-12-10.2-.2-1-.18-2.07-1.71-3-5.36,4.39-10.75,9.12-16.83,12.95-8.86,5.59-20.27,4.27-26.91-3.23a7.35,7.35,0,0,0-1.41.29c-8.25,3.41-11.81,9.83-13.29,18.46-1.85,10.79-7.58,18.84-19,21.76-13.34,3.41-26.26-3.36-30.9-16.42A73,73,0,0,1,521.2,755c-.59-3.91-2.48-5.94-6.92-5.53a115.32,115.32,0,0,1-15,.16c-3.85-.15-5.86,1.45-6.65,5.11-.93,4.36-2.07,8.68-3.05,13-2.33,10.28-11.88,17-21.62,18C456.1,787,447.23,782.91,442.31,773a38.37,38.37,0,0,1-4.22-13.44c-.47-5.24-2.87-8.85-7.76-11.75-4.24,7.4-11.17,6.63-18.3,5.8-11.09-1.29-20.61-5.64-27.85-14-2.41,1.5-2.55,3.39-3.14,5.07-2.25,6.41-3.54,7.3-10.49,6.62a38.2,38.2,0,0,1-20.08-8.36c-2.67-2.1-5.18-4.39-8.21-7-2.05,2.12-.93,6-4.13,6.94a19.86,19.86,0,0,1-8.6.34c-13.38-2-23.89-8.92-32.52-19.1a54.61,54.61,0,0,1-12.32-27.7c-2.86.09-3.12,2.69-4.53,4-3.55,3.38-6.28,2.91-8.63-1.47-1-2-1-4.06-1.28-6.12-2.78-19.18.76-37.69,5.84-56.05,4.49-16.23,10.9-31.75,17.37-47.26,1-2.42,2.14-4.8,3-7.26,2.65-7.3,2.31-7.65-5.53-6.41a26.64,26.64,0,0,1-8.64.18c-3.43-.57-5.93-2.39-6.84-5.7-1-3.52-.37-6.73,3-9,1.5-1,3.3-1.75,4.24-3.7-4.55-7.1-9.43-14.26-13.84-21.7-4-6.72-7.58-13.55-13.17-19.28-3.81-3.91-5.82-9.31-7.4-14.65-2.08-7-3.71-14.22-6.63-21a14,14,0,0,1-1-4.58c-.3-5.08,2.54-7.19,7.46-5.67a2.47,2.47,0,0,1,.72.33c11,7.5,23.71,12.61,32.94,22.73a30.32,30.32,0,0,1,4.69,7.25c5.29,11,13,20.3,19.74,30.34.94,1.42,1.88,3.2,4.74,3,3.92-11.16,6.14-22.92,8.47-34.67,3.13-15.76,4.13-31.78,6.13-47.68,9.81-78.12,50.83-131.66,125.55-158.44,2.47-.88,5.11-1.33,7.49-2.39s5.3-.55,7.36-2.41c.72-2.19-1.26-2.67-2.21-3.67-15.17-16-14.71-34.91-.56-51,12-13.57,27.37-20.95,45.74-21.41,10-.25,20-.59,29.33,4.13,2.56,1.31,5.27,2.44,7.21,4.72,3.31,3.88,2.65,8-1.94,10.23a95.14,95.14,0,0,1-9.6,3.44c-11.79,4.15-22.6,9.92-31.27,19.14-6.33,6.74-9.42,14.45-6.89,23.81,1.42,5.24,1.43,5.32,6.92,4.72,47.46-5.19,90.18,7,128,35.85,28.33,21.66,47.5,50.2,59.82,83.46,8.62,23.27,12.9,47.6,17.5,71.85,5.8,30.54,15.29,60,26.5,88.91s23.11,57.57,29.39,88.05c3.73,18.08,3.23,36.06-5.2,53.13a52.82,52.82,0,0,1-10,14.1,21,21,0,0,1-5.66,4.19c-4,1.88-6.51.65-7.68-3.7C734,713.55,733.5,708.05,731.22,703ZM273.81,508.17l1.17,1.39c.34,1.54.57,3.24,2.69,3.2a3.87,3.87,0,0,0,4-3.16,9.89,9.89,0,0,0-.69-6.18c-2.12-4.67-5.7-8.15-9.71-11.19-7.23-5.48-16-8.35-23.49-13.83,3.2,7.21,4.19,14.71,6.08,22a47.51,47.51,0,0,0,6,12.79,14.11,14.11,0,0,0,5.59,5.43,4.61,4.61,0,0,0,5.16-.39,3.83,3.83,0,0,0,1.65-4.75c-.64-2-1.18-4-1.76-6l3.07.5ZM589.59,708.6l-.19-.1a3,3,0,0,0-2.67-1.88c-.58-.53-1.13-1.1-1.75-1.58-10.19-8-16-18-14.12-31.38a10.33,10.33,0,0,0-1.37-6.78c-3.9-6.83-7.52-13.82-11.45-20.64-.94-1.61-2.58-2.88-.78-4.72s3.53-.72,4.75.7c4.59,5.36,11.22,6.41,17.37,8.56,3.24,1.13,6,1.52,8.13-2.06,2.44-4.1,2.66-6.38-.49-9.92a26.84,26.84,0,0,1-6.54-11.5c-.61-2.45.65-5.3-1.48-7.42-10.67.15-20.85,3.19-31.29,4.23-4.35.44-7.18,2.26-9.15,6.22-2.87,5.76-7.9,9.11-14.09,10.44a82.86,82.86,0,0,1-39-.73c-6-1.6-11.12-5-13.22-11.31-1-2.89-2.66-4-5.56-4.5-5.17-.86-10.28-2.1-15.39-3.28a15.8,15.8,0,0,0-6.24-.09C425.57,624.1,406,626,386.2,625c-1.54-.08-3.16-.43-5,.77a98.71,98.71,0,0,1,.95,29.45c-.37,2.75,1.2,3.79,3.68,3.85,1.84,0,3.69.15,5.52,0a183.25,183.25,0,0,0,37.1-6.73c7-2.05,14.21-3.91,19.36-9.79,1.23-1.41,3-2.76,4.8-1.48,2,1.41.58,3.3-.17,4.91a18.77,18.77,0,0,1-1.56,2.72C437,669.08,429.15,692.26,420.23,715c-4,6.26-4,6.36,1.38,9.59a99.41,99.41,0,0,0,22.79,10.53c34.51,10.28,69.42,12.82,104.82,5a190.91,190.91,0,0,0,44.28-15.82c1.6-.79,3.86-1.34,2.67-3.83-1.64-3.47-1.55-7.73-4.8-10.45l-.14-.16A1.36,1.36,0,0,0,589.59,708.6ZM318.82,531.43a1.16,1.16,0,0,0-.49,1.62l-.63,3.74c.36,2,1.74,1.46,3,1.22l1.94.34c8.24,5.95,8.73,10.45,1.91,17.8-.53.57-1.2,1-1.79,1.53a2.59,2.59,0,0,0-.79,3.43,57.24,57.24,0,0,0,10.58,15.41c-.67-12.91-2.35-24.32-2.36-35.84,0-9.14-.42-18.28-.64-27.42a6,6,0,0,0,.2-4.12c.71-7.23,1.47-14.44,2.1-21.67.26-2.93.68-5.7,3.25-7.6a4.28,4.28,0,0,1,3.25,4.73c-.15,2.37-.08,4.75-.34,7.09-3.66,33.2-.77,66.17,3.5,99.08a9.92,9.92,0,0,0,1.56,4.38c3.49,5.21,6.95,10.44,10.24,15.78,1.82,2.94,4.09,4.49,7.69,4.41,5.56-.11,10.91,1.38,16.3,2.54,3.24.69,6.55,1.89,10,.07-1.31-7.41-2.76-14.61-3.81-21.88-1.43-9.83-5.33-19.19-4.67-29.45,1.14-17.88-.15-35.76-1.33-53.6-2.07-31.36-1.09-62.32,7-93,5.42-20.49,13.52-39.69,22.91-58.49a22.51,22.51,0,0,1,2.87-4.68,2.75,2.75,0,0,1,3.58-.62,3,3,0,0,1,1.63,3.27A15.61,15.61,0,0,1,414,363.1c-10.53,20.37-18.16,41.68-24.2,63.88-5.14,18.87-4.38,37.89-6.93,56.9,12-1.2,28.83-17.69,32.11-31-4.47-1.23-7.92,4.17-13.41,1.86,2.72-4.5,6.73-6.21,11.06-6.67,6-.64,8.69-3.86,11-9.3,9.06-21,16.12-42.69,24-64.1,2.08-5.66,4.68-11.13,7.19-16.62.89-1.94,2.33-3.92,4.85-2.46,2.25,1.3,2,3.36.84,5.48a84.38,84.38,0,0,0-6.94,15.85,153.81,153.81,0,0,0-6.74,44.3c0,19.09,3.28,37.63,12.15,54.91,2.1,4.09,4.62,5.75,9.27,5.1,13.87-1.92,27.83-1.19,41.78-1a254.3,254.3,0,0,0,37-2.09c6.11-.83,6.28-.87,6.46-7.38.15-5.52.24-11.05.19-16.57-.19-20.56-1.57-41-7.92-60.73a14.29,14.29,0,0,1-.62-3.86c-.05-1.31.15-2.69,1.8-3,1.37-.29,2.76-.05,3.37,1.31a51.21,51.21,0,0,1,2.8,7.33c4.35,15.68,8.56,31.41,12.89,47.1,1.66,6,1.74,6,7.78,4.62,7.51-1.68,15.27,1.16,20.62,7.71-3.82,1.4-6.61-1.34-9.57-2.39-4.25-1.5-8.06-1.62-12,.47-1.59.85-2.48,1.89-1.39,3.74,3.21,5.46,5.18,11.48,7.7,17.26a4.89,4.89,0,0,0,4.92,3.18c10.53-.15,21-.71,31.33-3,3.17-.71,4.4-2.12,4.15-5.37a194.79,194.79,0,0,0-2.38-19.56c-1.53-8.52-3-17.05-4.52-25.57-.35-1.92-.53-4.06,1.56-4.75,2.79-.92,3.36,1.69,4.19,3.55a10.16,10.16,0,0,1,.77,2.23c3.07,16.27,7.28,32.43,7.82,49,.76,23.39.86,46.82-.9,70.19-.69,9.07-1.71,18.12-2.66,28a115.64,115.64,0,0,1,27.43-9.35c2.45-.52,3.61-1.58,3.94-4,.79-5.73,2.13-11.4,2.55-17.14,2-26.3,2.05-52.54-2.7-78.63-.75-4.11-.73-8.37-1-12.57-.1-1.59-.08-3.28,2-3.66,2.34-.42,3.37,1,3.82,3,.35,1.54.64,3.09.88,4.65,1.09,7,2.29,14,3.17,21,.4,3.18,1.4,5.18,4.68,6.4,11.15,4.15,18.05,12.76,21.51,23.63,6.31,19.8,2.18,37.84-11,53.84-.77.93-2.18,1.58-1.51,3.48,1.08,1.06,2.74.81,4.23,1.14,30.87,6.71,50.59,29.87,50.14,62.45-.14,9.6-3.27,18.64-7.42,27.16-2.37,4.87-2.32,8.74-.22,13.88,6.15,15,14.3,29.31,17.73,45.39.17.83.84,1.21,2.41,1.12,7.64-9.73,13.2-20.66,14.43-33.72,1.62-17.13-2.13-33.59-7-49.63-5-16.55-11.84-32.53-17.85-48.77-6.21-16.74-13-33.28-18.44-50.28-9.61-30.32-15.29-61.63-21.82-92.71-3.18-15.17-7.5-30-14.45-44a103,103,0,0,0-12.32-23.31,20.57,20.57,0,0,0-1.24-2.79,165.19,165.19,0,0,0-51.41-52.33c-33.54-21.42-69.88-30.32-109.48-25.71-2.4.28-3.25.74-3.84,3.46-1.29,5.91-2.93,6.58-9.06,5.29A69.73,69.73,0,0,1,481.1,296a16.91,16.91,0,0,0-10.05-.73c-14.31,3.31-28.22,7.82-41.24,14.78-22.93,10.79-41.91,26.62-58.26,45.77a152.24,152.24,0,0,0-29,52.56c-6,17.72-9.39,36-11.18,54.57-3.47,21.19-5.47,42.65-11.29,63.42l-.17.42-1,4.42Zm12,74.21-1.51-1.71a55.84,55.84,0,0,0-6.55-10.72c-1.41-5.45-5.42-9.06-9.14-12.87a6,6,0,0,0-3.34-4.69c-.53-2.7-2.47-5-2-8,.54-3.53,2-4.18,6.24-2.6a313.4,313.4,0,0,0,22,34.8c.72,2.3,1.51,4.54,4.76,6a9.29,9.29,0,0,0-4.12-6.65c-5-11.91-12.55-22.32-19.7-33a9.07,9.07,0,0,0-2.47-1.81c-2.59-5.62-1.74-10.11,4.21-13a7.47,7.47,0,0,0,1.86-1.42c1.24-1.19,1.88-2.73.89-4.21-1.24-1.85-3.14-1.66-4.88-.68a11.59,11.59,0,0,0-3.68,4,71.22,71.22,0,0,1-5,7c-8.59,9.94-8.62,9.9.73,19.5a3.66,3.66,0,0,0,.65.43,7.12,7.12,0,0,0,3.21,4.67c2,5,4.38,9.74,9.06,12.87.36,2.15,1.15,4,3.39,4.83a7.87,7.87,0,0,0,3.42,6,2,2,0,0,0,1.45,1.65,6.17,6.17,0,0,0,3.24,4.65,9.26,9.26,0,0,0,.7,2.12c.37.6,1.32,1.54,1.52,1.43,1.41-.78.38-1.68-.17-2.41a9.87,9.87,0,0,0-1.69-1.44A6.42,6.42,0,0,0,330.82,605.64Zm-33.45-42.29c-5.28.88-11.71-1.58-15.61,5.63,6.71.86,12.4,1.11,15.65-5.66l.13-.19Zm-9.62-45.94c-1.19-1.93-2.54-1.88-4-.31-4.55,2.28-7.63,6.94-13.09,7.46,2.45,8.51,11.61,24,17,29.09s11.46,4,16.36-3.09c3.9-4.44,3.39-8.38-.47-12.86-5.51-6.4-10.42-13.33-15.58-20ZM461.36,253.66c-4.73,18.5,11.34,37.76,31.14,37.31-8-14.83-3.61-33.42,7.72-43.89A77,77,0,0,1,523.84,232c4.92-2,9.94-3.76,14.66-5.53-.14-2-1.25-2.24-2.12-2.77A10,10,0,0,0,531.2,222a7.69,7.69,0,0,0-2-1.14c-23.9-5.63-44.23,1.09-61.3,18.19C464.07,243,461.32,247.8,461.36,253.66Zm128,481.88c2.84.28,3.63,2.57,4.77,4.66,3.1,5.71,4.12,6.23,10.66,4.92A36.07,36.07,0,0,0,627,731.5a39.48,39.48,0,0,1,5-6c2.7-2.31,5.21-1.64,7.08,1.49a17.18,17.18,0,0,1,2.39,9c0,4.42,2.19,5.75,6.36,5.94,17.27.8,29.25-7.19,34.36-23.34.55-1.76.62-3.78,3.21-3.62s2.41,2.4,2.74,4.07c.93,4.74-1.38,9.18-1.5,13.85,3.07,1.86,5.76.16,8.24-1,12.89-6,21.67-15.8,27.76-28.73s.36-23.39-5.1-34.48a15.51,15.51,0,0,0-1.91,1.38c-.86,1-1.67,2-2.46,3.06C700,690.59,682.72,702.81,662.77,711c-18.49,7.55-37.66,11.52-57.4,3.86-1.14-.44-2.5-.93-3.64.27,2.73,8.51,2.32,9.65-5.49,14.42-2.68,1.64-5.43,3.16-8.15,4.73-2.57,1.13-5.19,2.16-7.69,3.41-2.2,1.09-2.7,2.75-1.1,4.91C583.29,741,586.2,738.09,589.36,735.54Zm10.73-146.86c2.78-2.37,5.26-5.31,8.41-7,7.53-4.07,9.61-10.48,9.18-18.33,4-27.35,3.45-54.82,3.2-82.85C609,482,598,483,587,483.4c-6.54.26-10.78-2-13.57-8.27-3.68-8.26-9-15.69-13.17-24-.65,6.82-.61,13.52-.66,20.22-.09,9.69-2,11.71-11.63,13.19-12.81,2-25.71,1.55-38.58,1.76-14.19.22-28.42-1-42.53,1.4-5.61,1-9.35-1.2-12.22-6.28-9.54-16.87-13.85-35-14.49-54.23-.08-2.33.33-4.82-1.39-8-4.24,10-8,18.81-11.9,28,1.92,1,3.59,1.71,5.13,2.64a3.07,3.07,0,0,1,1.31,4.08c-.7,1.79-2.17,2.21-3.86,1.76-1.91-.51-3.44-2.85-5.69-1.53s-2.65,3.82-3.94,5.77c-1,1.53-1.88,3.17-3,4.65-7.73,10.61-14.84,22-29,25.17-4.57,1-5.49,3.53-5.15,7.81.78,9.95,1.78,19.89,1.8,29.91,0,12.88.55,25.76.64,38.65.06,8.08,3.19,14.62,8.6,20.48,8.24,8.93,18.51,14.78,29.51,19.15,23.9,9.51,49,13.58,74.61,14.24a330.1,330.1,0,0,0,44.91-1.69,312.77,312.77,0,0,0,36.43-6.19c3.42-.8,6.08-2.27,7.73-5.84C590,599.54,595.15,594.14,600.09,588.68Zm27,123.14c5.63.59,11.07-.61,16.41-1.89,37.88-9.09,65.16-30.51,78.33-68,6.26-17.85,4.14-34.79-7-50.11-9.92-13.64-23.66-20.18-40.49-22.87-33.27-5.33-68.08,14.82-83,41.61-4.82,8.65-5.69,16.4,1,24.69,5.42,6.73,4.62,12.67-1.25,19.07-1.94,2.13-4.22,4-6.32,5.93a23.4,23.4,0,0,0-6.17,9c-4.15,11.2-.61,22.26,10.15,30.5C600,708.38,613.14,711.44,627.06,711.82ZM276.83,689.5a298.59,298.59,0,0,1,21-46c1.27-2.3,2.46-4.67,4.65-6.27,1.1-.79,2.37-1.34,3.6-.38a3,3,0,0,1,.93,3.56c-1,2.41-2.27,4.72-3.52,7-7.27,13.3-12.52,27.06-12,42.67.71,21,11.65,34.73,29.7,43.77a20.73,20.73,0,0,0,11.26,2.17c-1.6-4.59-2.82-8.52-4.32-12.33-6.52-16.61-1.93-32.59,2.64-48.56a2.66,2.66,0,0,1,3.08-1.9,3,3,0,0,1,2.86,3.17,24.75,24.75,0,0,1-.77,3.83c-1.23,6.45-2.4,12.92-3.68,19.36a22,22,0,0,0,2.68,15.87c4.8,8.4,11.58,14.92,18.8,21a34.68,34.68,0,0,0,14.55,7.6c5.09,1.21,5.73.83,6.72-4.25,1-4.89,1.85-9.79,2.73-14.69.4-2.24-.13-5.2,3.33-5.25,2.93,0,2.72,2.58,3.24,4.56a27.58,27.58,0,0,0,8.77,13.74c8.61,7.65,19,9.42,30,9.26-.28-2.65-.68-5-.74-7.27-.07-3,1.74-3.83,4.1-2.5a92.64,92.64,0,0,1,7.72,5.4c1.78-3.52-.35-4.66-3-5.79a77.32,77.32,0,0,1-16.95-10c-4.55-3.54-4.84-4.49-2.65-10,3-7.56,6.17-15,9.32-22.55,5-12,10.11-24,15.77-37.42-16.67,5.52-32.64,7.27-49.4,8.47,3.15,5.35,6.11,9.67,8.35,14.35,3.13,6.5-1,12.52-8,12.36-3.29-.08-5.22-2-7-4.5-4.56-6.42-9.25-12.75-13.75-19.22-1.9-2.74-3.86-4.64-7.59-4.61-20.19.13-34.12-24.27-29.72-42,.71-2.9.71-4.73-1-7.1-7.68-10.65-15.65-21.12-22.4-32.42-.38-.63-1.19-1-2-1.64-2.69,6.69-5.46,13.19-7.95,19.81-2.57,6.87-4.72,13.91-7.32,20.77a234,234,0,0,0-11.57,39.23C275.55,670.31,274.66,679.86,276.83,689.5Zm249.88,60.23c1.27,7,1.27,13.57,4.42,19.52,6.45,12.2,26,14.2,32.92,2.88,5.77-9.45,6.74-20.45,8.32-32C557,745.61,541.92,747.4,526.71,749.73Zm-85-8.69c.91,9.53,2.2,18,5.05,26.1,3.28,9.36,7.49,11.64,17.91,12.07,8.88.37,15.49-4,18.53-11.82,2.18-5.56,2.83-11.48,4-17.65C471.81,747.25,456.67,746.38,441.71,741ZM661.09,561.61c14.48-3.63,25.54-22.05,25.45-41-.07-14.78-9.72-29.52-21.57-32.45C665.6,512.54,665.72,536.84,661.09,561.61Zm-127.2,64.21c-7.3-.71-52.63-.55-56.21.19,1.68,4.78,5.72,6.82,9.95,7.89a78,78,0,0,0,35.72.48C528.14,633.37,531.54,630.39,533.89,625.82ZM358.35,658.13c3.38,0,6.22.09,7.12-3.21,1-3.65-1.54-5.15-4.3-6.39-1.2-.54-2.43-1-3.61-1.54-5.94-2.79-8.93-7.77-10.23-13.94-.26-1.27-.08-2.64-.33-3.91-.66-3.43-4.43-6.11-8.1-5.83-4.41.34-3.64,3.79-3.66,6.5-.06,10.6,9.26,23.79,19.26,27.39A31.54,31.54,0,0,0,358.35,658.13Zm15.32-.76c3.16-11,3.27-15.21,1.14-27.23-1-5.63-2.66-7.38-7.85-8.27-5.61-1-9.79.5-11.8,4.1s-1.23,8.92,1.79,12.44c1.39,1.61,3,3.15,5.05,3.61C370.16,643.86,373.86,649,373.67,657.37Zm15.93-65.74a181.19,181.19,0,0,0,3.86,23.42c.7,2.92,2.05,3.87,4.82,3.83,9.6-.12,19-1.61,28.64-3.43C413.76,609.38,401.17,602.75,389.6,591.63Zm-17.3,72.84c6.82,12.4,13.11,19.53,18.42,20.1C384.61,678.37,385.2,666.58,372.3,664.47Zm198.9-8.7c.09,3.1,2.18,5.12,3,7.66a8.37,8.37,0,0,0,3.35-4.93C575.87,656.94,573.84,656.47,571.2,655.77ZM342.35,608.3c1.41,3.21,2.35,6.82,5.78,8.79A14.46,14.46,0,0,0,342.35,608.3Z"/><path class="cls-2" d="M291.91,302.43c2.24.92,2.69,3.16,3.42,5A29.18,29.18,0,0,0,309,323c4.77,2.58,4.87,4.16.14,6.91a33.37,33.37,0,0,0-15.3,18.27c-.46,1.28-1.13,2.44-2.59,2.65a2.66,2.66,0,0,1-2.89-2.17c-2.75-8.8-9-14.5-16.49-19.26-3.38-2.13-3.46-3.91,0-5.76,7.76-4.21,12.92-10.51,16.54-18.35a8.24,8.24,0,0,1,2.06-2.33A4.33,4.33,0,0,1,291.91,302.43Z"/><path class="cls-1" d="M266.19,399.34c.51,8-2.83,15.89-7.36,23.42a8.67,8.67,0,0,1-8.32,4.67c-13.72-.2-25.8-4-35.19-14.56-5.44-6.12-7-13.38-3.9-18.63,3.34-5.63,11-8.74,18.56-6.67,4.13,1.14,5.25-.32,5.61-3.82a12,12,0,0,1,.42-2.32c1.91-6.08,5.93-9.79,12.31-10.59,5.58-.7,10.89,2.54,13.85,8.41S266.21,391.67,266.19,399.34Zm-28.68-6.27c-3.19-1-5.83-2.13-8.58-2.73-4.66-1-10.77,1.55-13.16,5.21-2.58,4-2.3,8.23,1.65,13,8.39,10.1,19.2,15,32.45,14.29a5.37,5.37,0,0,0,4.65-2.31c8.26-12.22,10.13-25.06,3.78-38.68-1.76-3.76-4.3-6.59-8.91-6.56-4.94,0-7.37,3.27-9.37,7.19C238.42,385.61,239.08,389.21,237.51,393.07Z"/><path class="cls-2" d="M699.84,287a3.25,3.25,0,0,1-2,3.14c-7.2,3.31-11.28,9.08-13.45,16.5-.43,1.46-1.21,3.12-3.09,3.1s-2.63-1.88-2.94-3.25c-1.84-8.12-7.46-12.81-14.19-16.86-3.78-2.27-3.84-4.65-.11-6.09,7.63-2.95,11.28-9,14.22-15.87.58-1.37,1-3.28,2.86-3.39,2.33-.14,2.86,2.05,3.58,3.63,3,6.5,5.92,12.95,13.17,15.93A3.15,3.15,0,0,1,699.84,287Z"/><path class="cls-1" d="M769.46,382c6.27-3.59,12.15-1.78,17.72,1.6,3.36,2,4.92,5.28,4.84,9.32a16.79,16.79,0,0,1-3.38,10.3c-8.35,10.49-18.5,18.4-31.8,21.84-3.29.85-5.36.07-7.61-2.27-10.22-10.64-14-30.68-8.05-44.2,4.48-10.24,13.43-11.18,20.72-2.5,1.68,2,2.78,4.4,4.73,6.14C767.69,383.57,768.61,383.22,769.46,382Zm17.29,7.71A7,7,0,0,0,780.4,385c-1.56-.15-3-.22-4.12-1.54l-3,.29-5.58,2.67-3.95.06a19,19,0,0,0-7.08-10.1c-3.71-2.84-6.47-2.58-9.59.92a17.6,17.6,0,0,0-4.12,10c-.74,6.8-1,13.6,2.24,20,.74,4.62,4.2,7.74,6.42,11.55,1.25,2.13,3.1,2.58,5.4,1.84,11.51-3.72,21.42-9.76,28.17-20.07C787.31,397.4,789.16,393.75,786.75,389.68Z"/><path class="cls-2" d="M365.06,235.85c.43.28,1.3.55,1.61,1.12a30.39,30.39,0,0,1,1.8,4.33c1.91,5.35,4.8,9.69,10.09,12.52,4.83,2.58,4.76,3.81.77,7.25-5.15,4.43-10.64,8.44-12.42,15.66-.59,2.41-2.64,2.19-4.09.19a10.13,10.13,0,0,1-1.13-2.07,28.56,28.56,0,0,0-12-14.15c-1.9-1.15-4.49-3.3-1-5.34a29.82,29.82,0,0,0,13.47-16.76A3.67,3.67,0,0,1,365.06,235.85Z"/><path class="cls-2" d="M241.81,606.71a3.77,3.77,0,0,1-1.84,2.4c-4.21,2.89-6.91,6.95-9.42,11.35-3.13,5.51-5.24,5.37-8.63-.07a37.41,37.41,0,0,0-9.81-10c-3.89-2.91-4.24-4.75-.6-7.24,5.42-3.71,8.81-8.75,11.84-14.33,1.92-3.55,4.12-3.71,5.49-.38,2.36,5.76,6.18,10.26,10.64,14.37C240.64,603.86,241.78,605,241.81,606.71Z"/><path class="cls-2" d="M792.17,546c-7.93,3.42-11,9.45-14.16,15.54-2.15,4.15-4.45,4.22-6.59.05-2.79-5.45-5.64-10.62-11.2-13.81-1.71-1-1.38-2.81,0-4A44.71,44.71,0,0,0,772.8,526c.78-2,3.31-2.77,4.06-.28C779.33,534,785.47,539.36,792.17,546Z"/><path class="cls-2" d="M604.9,226.27c-.07,2.25-6.86,9.46-8.79,9.54-1.66.07-6.79-4.86-7.19-7.64-.66-4.49,3.59-6.53,5.81-9.42,1.85-2.42,4.23-.29,5.84,1.49S604.6,223.61,604.9,226.27Z"/><path class="cls-2" d="M762.9,470c.12,2.87-3.42,7.1-6.07,7.24-2.92.14-5.89-2.81-6.06-6-.2-3.62,2.54-6.87,5.9-7A6.31,6.31,0,0,1,762.9,470Z"/><path class="cls-3" d="M769.46,382c-.85,1.25-1.77,1.6-2.83.23Z"/><path class="cls-4" d="M429.81,310.05c13-7,26.93-11.47,41.24-14.78a16.91,16.91,0,0,1,10.05.73,69.73,69.73,0,0,0,10.61,2.85c6.13,1.29,7.77.62,9.06-5.29.59-2.72,1.44-3.18,3.84-3.46,39.6-4.61,75.94,4.29,109.48,25.71a165.19,165.19,0,0,1,51.41,52.33,20.57,20.57,0,0,1,1.24,2.79c-2.38,3.31-1.49,7.12-1.22,10.66.53,6.84,6.19,11.84,13.54,12.65,7,14,11.27,28.81,14.45,44,6.53,31.08,12.21,62.39,21.82,92.71,5.39,17,12.23,33.54,18.44,50.28,6,16.24,12.88,32.22,17.85,48.77,4.82,16,8.57,32.5,7,49.63-1.23,13.06-6.79,24-14.43,33.72-1.57.09-2.24-.29-2.41-1.12-3.43-16.08-11.58-30.36-17.73-45.39-2.1-5.14-2.15-9,.22-13.88,4.15-8.52,7.28-17.56,7.42-27.16.45-32.58-19.27-55.74-50.14-62.45-1.49-.33-3.15-.08-4.23-1.14-.67-1.9.74-2.55,1.51-3.48,13.21-16,17.34-34,11-53.84-3.46-10.87-10.36-19.48-21.51-23.63C665,480,664,478,663.62,474.84c-.88-7-2.08-14-3.17-21-.24-1.56-.53-3.11-.88-4.65-.45-2-1.48-3.4-3.82-3-2.11.38-2.13,2.07-2,3.66.27,4.2.25,8.46,1,12.57,4.75,26.09,4.65,52.33,2.7,78.63-.42,5.74-1.76,11.41-2.55,17.14-.33,2.44-1.49,3.5-3.94,4a115.64,115.64,0,0,0-27.43,9.35c1-9.92,2-19,2.66-28,1.76-23.37,1.66-46.8.9-70.19-.54-16.56-4.75-32.72-7.82-49a10.16,10.16,0,0,0-.77-2.23c-.83-1.86-1.4-4.47-4.19-3.55-2.09.69-1.91,2.83-1.56,4.75,1.52,8.52,3,17,4.52,25.57a194.79,194.79,0,0,1,2.38,19.56c.25,3.25-1,4.66-4.15,5.37-10.33,2.33-20.8,2.89-31.33,3a4.89,4.89,0,0,1-4.92-3.18c-2.52-5.78-4.49-11.8-7.7-17.26-1.09-1.85-.2-2.89,1.39-3.74,3.94-2.09,7.75-2,12-.47,3,1.05,5.75,3.79,9.57,2.39-5.35-6.55-13.11-9.39-20.62-7.71-6,1.36-6.12,1.38-7.78-4.62-4.33-15.69-8.54-31.42-12.89-47.1a51.21,51.21,0,0,0-2.8-7.33c-.61-1.36-2-1.6-3.37-1.31-1.65.35-1.85,1.73-1.8,3a14.29,14.29,0,0,0,.62,3.86c6.35,19.77,7.73,40.17,7.92,60.73,0,5.52,0,11.05-.19,16.57-.18,6.51-.35,6.55-6.46,7.38a254.3,254.3,0,0,1-37,2.09c-13.95-.15-27.91-.88-41.78,1-4.65.65-7.17-1-9.27-5.1-8.87-17.28-12.14-35.82-12.15-54.91a153.81,153.81,0,0,1,6.74-44.3,84.38,84.38,0,0,1,6.94-15.85c1.15-2.12,1.41-4.18-.84-5.48-2.52-1.46-4,.52-4.85,2.46-2.51,5.49-5.11,11-7.19,16.62-7.89,21.41-15,43.11-24,64.1-2.35,5.44-5,8.66-11,9.3-4.33.46-8.34,2.17-11.06,6.67,5.49,2.31,8.94-3.09,13.41-1.86-3.28,13.33-20.07,29.82-32.11,31,2.55-19,1.79-38,6.93-56.9,6-22.2,13.67-43.51,24.2-63.88a15.61,15.61,0,0,0,1.49-3.62,3,3,0,0,0-1.63-3.27,2.75,2.75,0,0,0-3.58.62,22.51,22.51,0,0,0-2.87,4.68c-9.39,18.8-17.49,38-22.91,58.49-8.12,30.7-9.1,61.66-7,93,1.18,17.84,2.47,35.72,1.33,53.6-.66,10.26,3.24,19.62,4.67,29.45,1.05,7.27,2.5,14.47,3.81,21.88-3.46,1.82-6.77.62-10-.07-5.39-1.16-10.74-2.65-16.3-2.54-3.6.08-5.87-1.47-7.69-4.41-3.29-5.34-6.75-10.57-10.24-15.78a9.92,9.92,0,0,1-1.56-4.38c-4.27-32.91-7.16-65.88-3.5-99.08.26-2.34.19-4.72.34-7.09a4.28,4.28,0,0,0-3.25-4.73c-2.78-1.61-3.27-4.18-3.23-7.14,0-3.26.47-6.57-.54-9.78,1.79-18.59,5.17-36.85,11.18-54.57,6.13-2.35,7.2-8.71,10.33-13.36,3.83-5.68,3.51-5.86,9-1.93s11.83,6.43,18.41,3c7.19-3.75,11.24-10,11.77-18.3.43-6.77-2.51-11.56-8.11-15.07-1.92-1.2-4.68-2.32-3.32-5.35,1.6-3.55,2.74-7.57,6.11-9.94,4.36-3.05,7.55-7.3,11.61-10.63,7.07-5.8,13.4-12.42,21.23-17.42C423.32,317,427.83,314.7,429.81,310.05ZM479,393.55C479,386.88,474.34,382,467.9,382c-5.18,0-10.92,5.44-10.85,10.31a12.06,12.06,0,0,0,11.62,11.45C474.81,403.75,478.91,399.68,479,393.55Zm168.63-4.83c-2.63.1-4.46,2.37-4.32,5.39.13,2.61,1.17,4.75,4,4.64s4.7-2.08,5.08-4.94C652.71,391.43,649.87,388.63,647.58,388.72ZM360.17,427.87c-.64-2.1-1.07-4.86-4.18-4.57a4.84,4.84,0,0,0-4.45,4.76c-.15,3,2,4.14,4.67,4C358.59,431.93,360,430.55,360.17,427.87Z"/><path class="cls-5" d="M600.09,588.68c-4.94,5.46-10.05,10.86-13.16,17.6-1.65,3.57-4.31,5-7.73,5.84a312.77,312.77,0,0,1-36.43,6.19A330.1,330.1,0,0,1,497.86,620c-25.64-.66-50.71-4.73-74.61-14.24-11-4.37-21.27-10.22-29.51-19.15-5.41-5.86-8.54-12.4-8.6-20.48-.09-12.89-.6-25.77-.64-38.65,0-10-1-20-1.8-29.91-.34-4.28.58-6.79,5.15-7.81,14.14-3.14,21.25-14.56,29-25.17,1.08-1.48,1.94-3.12,3-4.65,1.29-1.95,1.81-4.51,3.94-5.77s3.78,1,5.69,1.53c1.69.45,3.16,0,3.86-1.76a3.07,3.07,0,0,0-1.31-4.08c-1.54-.93-3.21-1.66-5.13-2.64,3.9-9.18,7.66-18,11.9-28,1.72,3.17,1.31,5.66,1.39,8,.64,19.2,4.95,37.36,14.49,54.23,2.87,5.08,6.61,7.24,12.22,6.28,14.11-2.4,28.34-1.18,42.53-1.4,12.87-.21,25.77.22,38.58-1.76,9.63-1.48,11.54-3.5,11.63-13.19,0-6.7,0-13.4.66-20.22,4.13,8.28,9.49,15.71,13.17,24,2.79,6.27,7,8.53,13.57,8.27,11-.43,22-1.45,33.9-2.91.25,28,.84,55.5-3.2,82.85a3.36,3.36,0,0,1-3-2.16c-2.28-5.94-7.07-8.82-13-10.14-3.81-.84-7.56-2.14-11.53-2.12,14.31-10.07,14-33,5.17-44.73-7.34-9.73-20.75-9.94-28.4-.46-5.83,7.24-7.11,15.63-6.27,24.51,1.3,13.71,10.45,22.2,24.11,22.55-2.16,2.13-4.92,1.35-7.45,1.46-7.77.32-12.88,4.78-15.36,11.44a16.06,16.06,0,0,0,4,18c4.36,4.31,9.72,5.67,15.41,6.87C587.72,589.88,593.89,588,600.09,588.68ZM419.16,547.56c-7.24,1.13-14,2.66-20.29,7.38-9.62,7.19-9.65,25.22,3.86,30.22a57,57,0,0,0,9.82,2.78c9,1.58,17.86.57,25.8-4.47,12.3-7.8,11.71-23-1.1-29.88-1.84-1-3.8-1.72-5.71-2.57,9.56-1.56,15.59-7.23,18.14-16.36,2.62-9.45,1.9-18.75-3.28-27.3-4-6.66-9.58-11.13-18-10.45-8.07.66-13,5.84-15.51,12.72C407.88,523.26,408.3,536.36,419.16,547.56Zm104.32,9.74c-.23-2,.27-5.6-3-5.88-3.77-.33-3.22,3.24-3.21,5.82,0,4-2.36,6.18-5.72,7.64-7.94,3.46-14.93-.45-16.57-9.26-.09-.51-.1-1-.22-1.56a2.9,2.9,0,0,0-2.66-2.45c-1.52-.13-2.41.94-2.77,2.3a13,13,0,0,0,2.94,12.47c6.07,7,17.33,8.21,25.1,2.79C521.38,566.38,523.26,562.59,523.48,557.3Z"/><path class="cls-6" d="M420.23,715c8.92-22.69,16.8-45.87,30.67-66.27a18.77,18.77,0,0,0,1.56-2.72c.75-1.61,2.21-3.5.17-4.91-1.83-1.28-3.57.07-4.8,1.48-5.15,5.88-12.31,7.74-19.36,9.79a183.25,183.25,0,0,1-37.1,6.73c-1.83.14-3.68,0-5.52,0-2.48-.06-4.05-1.1-3.68-3.85a98.71,98.71,0,0,0-.95-29.45c1.82-1.2,3.44-.85,5-.77,19.79,1,39.37-.87,58.85-4.11a15.8,15.8,0,0,1,6.24.09c5.11,1.18,10.22,2.42,15.39,3.28,2.9.48,4.59,1.61,5.56,4.5,2.1,6.32,7.19,9.71,13.22,11.31a82.86,82.86,0,0,0,39,.73c6.19-1.33,11.22-4.68,14.09-10.44,2-4,4.8-5.78,9.15-6.22,10.44-1,20.62-4.08,31.29-4.23,2.13,2.12.87,5,1.48,7.42A26.84,26.84,0,0,0,587,638.8c3.15,3.54,2.93,5.82.49,9.92-2.12,3.58-4.89,3.19-8.13,2.06-6.15-2.15-12.78-3.2-17.37-8.56-1.22-1.42-3-2.5-4.75-.7s-.16,3.11.78,4.72c3.93,6.82,7.55,13.81,11.45,20.64a10.33,10.33,0,0,1,1.37,6.78C569,687.08,574.79,697.05,585,705c.62.48,1.17,1.05,1.75,1.58a2.47,2.47,0,0,0,2.67,1.88l.19.1a1.78,1.78,0,0,0,1.64,1.25l.14.16c.57,4.27-1.21,6.9-5.33,8.3-5.93,2-11.63,4.58-17.71,6.3a288,288,0,0,1-49.08,9.69,146.7,146.7,0,0,1-29.63.11c-7.6-.75-14.92-2.56-22.37-3.77C453,728.34,439,725,426.72,717,424.65,715.67,422.75,714.53,420.23,715Zm50.68-56.9c-8.24.13-14,6.64-12.2,13.36a35.7,35.7,0,0,0,15.88,21.68,6.36,6.36,0,0,0,6.68.38c9-4.39,15.27-11.2,18-20.77,2.06-7.28-3.3-15.19-10.31-14.3C482.33,659.25,476,661.79,470.91,658.05Z"/><path class="cls-7" d="M627.06,711.82c-13.92-.38-27.07-3.44-38.35-12.08-10.76-8.24-14.3-19.3-10.15-30.5a23.4,23.4,0,0,1,6.17-9c2.1-2,4.38-3.8,6.32-5.93,5.87-6.4,6.67-12.34,1.25-19.07-6.69-8.29-5.82-16-1-24.69,14.93-26.79,49.74-46.94,83-41.61,16.83,2.69,30.57,9.23,40.49,22.87,11.14,15.32,13.26,32.26,7,50.11-13.17,37.52-40.45,58.94-78.33,68C638.13,711.21,632.69,712.41,627.06,711.82Zm10.11-37.93c8-.08,12.65-4.91,12.42-12.88-.23-8.17-5.55-13.75-13.11-13.75A13.33,13.33,0,0,0,623.3,661C623.5,668.54,629.34,674,637.17,673.89Zm67.48-31.11a12.73,12.73,0,0,0-12.76-13.22c-7.69-.12-14,5.76-13.9,13a13.4,13.4,0,0,0,13.75,13.25A12.79,12.79,0,0,0,704.65,642.78Zm-65,50.69c0-7.15-6.25-13.21-13.8-13.28a11.91,11.91,0,0,0-12.47,12.28c0,7.89,6.3,14.6,13.58,14.42A13.2,13.2,0,0,0,639.61,693.47Zm13-89.46c0-8.85-8.28-16.33-17.73-16.11-8.68.19-16.53,8.07-16.62,16.65-.09,9.12,7.62,16.64,17.16,16.73C645.66,621.37,652.71,614.29,652.65,604Zm26.49-3.16c0,8.66,6.21,14.29,15.41,14.07,7.1-.17,13.13-6.57,13.19-14,.07-8.54-5.84-14.49-14.27-14.36C684.76,586.69,679.11,592.34,679.14,600.85Zm-6.41,85.81c6.48.49,10.8-3.74,11.35-11.12a10.93,10.93,0,0,0-9.8-12,11.18,11.18,0,0,0-11.93,9.92C661.67,680.29,666.3,686.18,672.73,686.66Z"/><path class="cls-4" d="M276.83,689.5c-2.17-9.64-1.28-19.19.51-28.6a234,234,0,0,1,11.57-39.23c2.6-6.86,4.75-13.9,7.32-20.77,2.49-6.62,5.26-13.12,7.95-19.81.8.64,1.61,1,2,1.64,6.75,11.3,14.72,21.77,22.4,32.42,1.71,2.37,1.71,4.2,1,7.1-4.4,17.77,9.53,42.17,29.72,42,3.73,0,5.69,1.87,7.59,4.61,4.5,6.47,9.19,12.8,13.75,19.22,1.74,2.45,3.67,4.42,7,4.5,7,.16,11.1-5.86,8-12.36-2.24-4.68-5.2-9-8.35-14.35,16.76-1.2,32.73-2.95,49.4-8.47-5.66,13.43-10.73,25.42-15.77,37.42-3.15,7.5-6.33,15-9.32,22.55-2.19,5.52-1.9,6.47,2.65,10a77.32,77.32,0,0,0,16.95,10c2.64,1.13,4.77,2.27,3,5.79a92.64,92.64,0,0,0-7.72-5.4c-2.36-1.33-4.17-.49-4.1,2.5.06,2.31.46,4.62.74,7.27-11,.16-21.35-1.61-30-9.26a27.58,27.58,0,0,1-8.77-13.74c-.52-2-.31-4.6-3.24-4.56-3.46,0-2.93,3-3.33,5.25-.88,4.9-1.77,9.8-2.73,14.69-1,5.08-1.63,5.46-6.72,4.25a34.68,34.68,0,0,1-14.55-7.6c-7.22-6.13-14-12.65-18.8-21a22,22,0,0,1-2.68-15.87c1.28-6.44,2.45-12.91,3.68-19.36a24.75,24.75,0,0,0,.77-3.83,3,3,0,0,0-2.86-3.17,2.66,2.66,0,0,0-3.08,1.9c-4.57,16-9.16,32-2.64,48.56,1.5,3.81,2.72,7.74,4.32,12.33a20.73,20.73,0,0,1-11.26-2.17c-18.05-9-29-22.77-29.7-43.77-.53-15.61,4.72-29.37,12-42.67,1.25-2.3,2.49-4.61,3.52-7a3,3,0,0,0-.93-3.56c-1.23-1-2.5-.41-3.6.38-2.19,1.6-3.38,4-4.65,6.27A298.59,298.59,0,0,0,276.83,689.5Z"/><path class="cls-4" d="M588.09,734.23c2.72-1.57,5.47-3.09,8.15-4.73,7.81-4.77,8.22-5.91,5.49-14.42,1.14-1.2,2.5-.71,3.64-.27,19.74,7.66,38.91,3.69,57.4-3.86,20-8.14,37.25-20.36,50.42-37.8.79-1,1.6-2.07,2.46-3.06a15.51,15.51,0,0,1,1.91-1.38c5.46,11.09,11.26,21.41,5.1,34.48s-14.87,22.71-27.76,28.73c-2.48,1.15-5.17,2.85-8.24,1,.12-4.67,2.43-9.11,1.5-13.85-.33-1.67-.08-3.92-2.74-4.07s-2.66,1.86-3.21,3.62c-5.11,16.15-17.09,24.14-34.36,23.34-4.17-.19-6.39-1.52-6.36-5.94a17.18,17.18,0,0,0-2.39-9c-1.87-3.13-4.38-3.8-7.08-1.49a39.48,39.48,0,0,0-5,6,36.07,36.07,0,0,1-22.2,13.62c-6.54,1.31-7.56.79-10.66-4.92-1.14-2.09-1.93-4.38-4.76-4.66C588.94,735.1,588.51,734.67,588.09,734.23Z"/><path class="cls-4" d="M531.2,222a10,10,0,0,1,5.18,1.64c.87.53,2,.8,2.12,2.77-4.72,1.77-9.74,3.53-14.66,5.53a77,77,0,0,0-23.62,15.12c-11.33,10.47-15.69,29.06-7.72,43.89-19.8.45-35.87-18.81-31.14-37.31,3.25-1,3.74-4.14,5.06-6.58a26.85,26.85,0,0,1,5.53-7.51c12-10.79,26.33-15.49,42.22-15.69C519.94,223.81,525.62,223.53,531.2,222Z"/><path class="cls-8" d="M420.23,715c2.52-.42,4.42.72,6.49,2.06,12.32,8,26.32,11.33,40.53,13.63,7.45,1.21,14.77,3,22.37,3.77a146.7,146.7,0,0,0,29.63-.11,288,288,0,0,0,49.08-9.69c6.08-1.72,11.78-4.28,17.71-6.3,4.12-1.4,5.9-4,5.33-8.3,3.25,2.72,3.16,7,4.8,10.45,1.19,2.49-1.07,3-2.67,3.83a190.91,190.91,0,0,1-44.28,15.82c-35.4,7.78-70.31,5.24-104.82-5a99.41,99.41,0,0,1-22.79-10.53C416.25,721.31,416.25,721.21,420.23,715Z"/><path class="cls-9" d="M600.09,588.68c-6.2-.65-12.37,1.2-18.63-.11-5.69-1.2-11.05-2.56-15.41-6.87a16.06,16.06,0,0,1-4-18c2.48-6.66,7.59-11.12,15.36-11.44,2.53-.11,5.29.67,7.45-1.45a8.24,8.24,0,0,1,5.39-1.88c4,0,7.72,1.28,11.53,2.12,5.88,1.32,10.67,4.2,13,10.14a3.36,3.36,0,0,0,3,2.16c.43,7.85-1.65,14.26-9.18,18.33C605.35,583.37,602.87,586.31,600.09,588.68Z"/><path class="cls-10" d="M429.81,310.05c-2,4.65-6.49,6.95-10.23,9.34-7.83,5-14.16,11.62-21.23,17.42-4.06,3.33-7.25,7.58-11.61,10.63-3.37,2.37-4.51,6.39-6.11,9.94-1.36,3,1.4,4.15,3.32,5.35,5.6,3.51,8.54,8.3,8.11,15.07-.53,8.34-4.58,14.55-11.77,18.3-6.58,3.42-12.77,1-18.41-3s-5.2-3.75-9,1.93c-3.13,4.65-4.2,11-10.33,13.36a152.24,152.24,0,0,1,29-52.56C387.9,336.67,406.88,320.84,429.81,310.05Z"/><path class="cls-11" d="M526.71,749.73c15.21-2.33,30.26-4.12,45.66-9.56-1.58,11.51-2.55,22.51-8.32,32-6.91,11.32-26.47,9.32-32.92-2.88C528,763.3,528,756.72,526.71,749.73Z"/><path class="cls-11" d="M441.71,741c15,5.34,30.1,6.21,45.52,8.7-1.2,6.17-1.85,12.09-4,17.65-3,7.8-9.65,12.19-18.53,11.82-10.42-.43-14.63-2.71-17.91-12.07C443.91,759,442.62,750.57,441.71,741Z"/><path class="cls-11" d="M661.09,561.61c4.63-24.77,4.51-49.07,3.88-73.48,11.85,2.93,21.5,17.67,21.57,32.45C686.63,539.56,675.57,558,661.09,561.61Z"/><path class="cls-12" d="M270.49,507.43c.58,2,1.12,4,1.76,6a3.83,3.83,0,0,1-1.65,4.75,4.61,4.61,0,0,1-5.16.39,14.11,14.11,0,0,1-5.59-5.43,47.51,47.51,0,0,1-6-12.79c-1.89-7.26-2.88-14.76-6.08-22,7.5,5.48,16.26,8.35,23.49,13.83,4,3,7.59,6.52,9.71,11.19a9.89,9.89,0,0,1,.69,6.18,3.87,3.87,0,0,1-4,3.16c-2.12,0-2.35-1.66-2.69-3.2.1-.87-.39-1.26-1.17-1.39l-.25-.24C272.76,506.43,271.86,505.48,270.49,507.43Z"/><path class="cls-13" d="M304.05,550.56c-4.9,7.08-10.89,8.21-16.36,3.09s-14.58-20.58-17-29.09c5.46-.52,8.54-5.18,13.08-7.46.16-.08,1.26-1.37,2.26-1.14a2.51,2.51,0,0,1,1,.5,6.13,6.13,0,0,1,1,1.21,42.7,42.7,0,0,0,1.14,6.86C291.66,534.65,297.14,543,304.05,550.56Z"/><path class="cls-4" d="M331.34,463c1,3.21.58,6.52.54,9.78,0,3,.45,5.53,3.23,7.14-2.57,1.9-3,4.67-3.25,7.6-.63,7.23-1.39,14.44-2.1,21.67-1.3.46-3.28.29-3.08,2.34.13,1.41,1.75,1.42,2.88,1.78.22,9.14.63,18.28.64,27.42,0,11.52,1.69,22.93,2.36,35.84A57.24,57.24,0,0,1,322,561.11a2.59,2.59,0,0,1,.79-3.43c.59-.53,1.26-1,1.79-1.53,6.82-7.35,6.33-11.85-1.91-17.8,5.76-6.26,5.39-8-2.6-12C325.87,505.6,327.87,484.14,331.34,463Z"/><path class="cls-11" d="M533.89,625.82c-2.35,4.57-5.75,7.55-10.54,8.56a78,78,0,0,1-35.72-.48c-4.23-1.07-8.27-3.11-9.95-7.89C481.26,625.27,526.59,625.11,533.89,625.82Z"/><path class="cls-11" d="M358.35,658.13a31.54,31.54,0,0,1-3.85-.93c-10-3.6-19.32-16.79-19.26-27.39,0-2.71-.75-6.16,3.66-6.5,3.67-.28,7.44,2.4,8.1,5.83.25,1.27.07,2.64.33,3.91,1.3,6.17,4.29,11.15,10.23,13.94,1.18.55,2.41,1,3.61,1.54,2.76,1.24,5.29,2.74,4.3,6.39C364.57,658.22,361.73,658.08,358.35,658.13Z"/><path class="cls-11" d="M373.67,657.37c.19-8.39-3.51-13.51-11.67-15.35-2.07-.46-3.66-2-5.05-3.61-3-3.52-3.78-8.87-1.79-12.44s6.19-5.05,11.8-4.1c5.19.89,6.86,2.64,7.85,8.27C376.94,642.16,376.83,646.37,373.67,657.37Z"/><path class="cls-4" d="M389.6,591.63c11.57,11.12,24.16,17.75,37.32,23.82-9.63,1.82-19,3.31-28.64,3.43-2.77,0-4.12-.91-4.82-3.83A181.19,181.19,0,0,1,389.6,591.63Z"/><path class="cls-10" d="M531.2,222c-5.58,1.51-11.26,1.79-17,1.86-15.89.2-30.2,4.9-42.22,15.69a26.85,26.85,0,0,0-5.53,7.51c-1.32,2.44-1.81,5.6-5.06,6.58,0-5.86,2.71-10.71,6.58-14.59,17.07-17.1,37.4-23.82,61.3-18.19A7.69,7.69,0,0,1,531.2,222Z"/><path class="cls-11" d="M304.05,550.56c-6.91-7.57-12.39-15.91-14.91-26a42.7,42.7,0,0,1-1.14-6.86c5.16,6.7,10.07,13.63,15.58,20C307.44,542.18,308,546.12,304.05,550.56Z"/><path class="cls-10" d="M679.06,394.24c-7.35-.81-13-5.81-13.54-12.65-.27-3.54-1.16-7.35,1.22-10.66A103,103,0,0,1,679.06,394.24Z"/><path class="cls-14" d="M372.3,664.47c12.9,2.11,12.31,13.9,18.42,20.1C385.41,684,379.12,676.87,372.3,664.47Z"/><path class="cls-2" d="M297.42,563.31c-3.26,6.78-8.95,6.53-15.66,5.67,3.9-7.21,10.33-4.75,15.61-5.63Z"/><path class="cls-4" d="M320.05,526.37c8,4,8.36,5.72,2.6,12l-1.94-.34a2.82,2.82,0,0,0-3-1.22c.21-1.25.42-2.5.62-3.74a1.09,1.09,0,0,0,.5-1.62l.1-.21c2.38-1,1.87-2.69,1-4.43Z"/><path class="cls-15" d="M588.09,734.23c.42.44.85.87,1.28,1.31-3.17,2.55-6.08,5.49-10.07,7-1.6-2.16-1.1-3.82,1.1-4.91C582.9,736.39,585.52,735.36,588.09,734.23Z"/><path class="cls-4" d="M571.2,655.77c2.64.7,4.67,1.17,6.4,2.73a8.37,8.37,0,0,1-3.35,4.93C573.38,660.89,571.29,658.87,571.2,655.77Z"/><path class="cls-4" d="M329.56,513.26c-1.13-.36-2.75-.37-2.88-1.78-.2-2.05,1.78-1.88,3.08-2.34A6,6,0,0,1,329.56,513.26Z"/><path class="cls-13" d="M287.75,517.41c-1.42-2.27-2.72-1.48-4-.31C285.21,515.53,286.56,515.48,287.75,517.41Z"/><path class="cls-4" d="M319.88,526.79c.91,1.74,1.42,3.4-1,4.43Z"/><path class="cls-4" d="M317.7,536.79a2.82,2.82,0,0,1,3,1.22C319.44,538.25,318.06,538.78,317.7,536.79Z"/><path class="cls-16" d="M589.4,708.5a2.47,2.47,0,0,1-2.67-1.88A3,3,0,0,1,589.4,708.5Z"/><path class="cls-17" d="M270.49,507.43c1.37-1.95,2.27-1,3.07.5Z"/><path class="cls-16" d="M591.23,709.85a1.78,1.78,0,0,1-1.64-1.25A1.36,1.36,0,0,1,591.23,709.85Z"/><path class="cls-17" d="M273.81,508.17c.78.13,1.27.52,1.17,1.39Z"/><path class="cls-4" d="M318.82,531.43a1.09,1.09,0,0,1-.5,1.62A1.17,1.17,0,0,1,318.82,531.43Z"/><path class="cls-2" d="M297.37,563.35l.17-.22-.13.19Z"/><path class="cls-14" d="M314.52,565.05c-4.25-1.58-5.7-.93-6.24,2.6-.47,3,1.47,5.3,2,8l-.5.47a3.66,3.66,0,0,1-.65-.43c-9.35-9.6-9.32-9.56-.73-19.5a71.22,71.22,0,0,0,5-7,11.59,11.59,0,0,1,3.68-4c1.74-1,3.64-1.17,4.88.68,1,1.48.35,3-.89,4.21a7.47,7.47,0,0,1-1.86,1.42c-6,2.88-6.8,7.37-4.21,13Z"/><path class="cls-14" d="M315,564.49a9.07,9.07,0,0,1,2.47,1.81c7.15,10.63,14.68,21,19.7,33-.2.21-.42.41-.64.6a313.4,313.4,0,0,1-22-34.8Z"/><path class="cls-14" d="M322,593.65c-4.67-3.12-7.06-7.84-9.05-12.86l.63-.45c3.72,3.81,7.73,7.42,9.14,12.86A3.92,3.92,0,0,1,322,593.65Z"/><path class="cls-14" d="M342.35,608.3a14.46,14.46,0,0,1,5.78,8.79C344.7,615.12,343.76,611.51,342.35,608.3Z"/><path class="cls-14" d="M337.19,599.25a9.29,9.29,0,0,1,4.12,6.65c-3.25-1.51-4-3.75-4.76-6C336.77,599.66,337,599.46,337.19,599.25Z"/><path class="cls-14" d="M328.86,604.46a7.87,7.87,0,0,1-3.42-6,4.94,4.94,0,0,1,.56-.64,7.93,7.93,0,0,1,3.31,6.09Z"/><path class="cls-14" d="M325.44,598.49c-2.24-.83-3-2.68-3.4-4.84a3.92,3.92,0,0,0,.72-.45,8,8,0,0,1,3.24,4.65A4.94,4.94,0,0,0,325.44,598.49Z"/><path class="cls-14" d="M333.91,610.46a9.87,9.87,0,0,1,1.69,1.44c.55.73,1.58,1.63.17,2.41-.2.11-1.15-.83-1.52-1.43a9.26,9.26,0,0,1-.7-2.12Z"/><path class="cls-14" d="M310.28,575.65a6,6,0,0,1,3.34,4.69l-.63.45a7.12,7.12,0,0,1-3.21-4.67Z"/><path class="cls-14" d="M333.55,610.76a6.17,6.17,0,0,1-3.24-4.65l.51-.47a6.42,6.42,0,0,1,3.09,4.82Z"/><path class="cls-14" d="M330.31,606.11a2,2,0,0,1-1.45-1.65l.45-.52,1.51,1.7Z"/><path class="cls-18" d="M237.51,393.07c1.57-3.86.91-7.46,2.51-10.6,2-3.92,4.43-7.15,9.37-7.19,4.61,0,7.15,2.8,8.91,6.56,6.35,13.62,4.48,26.46-3.78,38.68a5.37,5.37,0,0,1-4.65,2.31c-13.25.7-24.06-4.19-32.45-14.29-3.95-4.76-4.23-9-1.65-13,2.39-3.66,8.5-6.22,13.16-5.21C231.68,390.94,234.32,392,237.51,393.07Z"/><path class="cls-18" d="M767.68,386.45l5.58-2.67c1.1.89,2.06.28,3-.29,1.07,1.32,2.56,1.39,4.12,1.54a7,7,0,0,1,6.35,4.65c-3.36-.24-6.24,1.28-8.78,3.06-10,7-22.51,8.28-32.79,14.59-3.21-6.39-3-13.19-2.24-20a17.6,17.6,0,0,1,4.12-10c3.12-3.5,5.88-3.76,9.59-.92a19,19,0,0,1,7.08,10.1C765.09,389.72,766.38,387.69,767.68,386.45Z"/><path class="cls-18" d="M745.18,407.33C755.46,401,768,399.76,778,392.74c2.54-1.78,5.42-3.3,8.78-3.06,2.41,4.07.56,7.72-1.58,11C778.42,411,768.51,417,757,420.72c-2.3.74-4.15.29-5.4-1.84C749.38,415.07,745.92,412,745.18,407.33Z"/><path class="cls-3" d="M767.68,386.45c-1.3,1.24-2.59,3.27-3.95.06Z"/><path class="cls-3" d="M776.28,383.49c-1,.57-1.92,1.18-3,.29Z"/><path class="cls-10" d="M479,393.55c0,6.13-4.14,10.2-10.28,10.21a12.06,12.06,0,0,1-11.62-11.45C457,387.44,462.72,382,467.9,382,474.34,382,479,386.88,479,393.55Z"/><path class="cls-10" d="M647.58,388.72c2.29-.09,5.13,2.71,4.81,5.09-.38,2.86-2.19,4.82-5.08,4.94s-3.92-2-4-4.64C643.12,391.09,645,388.82,647.58,388.72Z"/><path class="cls-10" d="M360.17,427.87c-.14,2.68-1.58,4.06-4,4.18-2.69.15-4.82-1-4.67-4A4.84,4.84,0,0,1,356,423.3C359.1,423,359.53,425.77,360.17,427.87Z"/><path class="cls-9" d="M431.54,551c1.91.85,3.87,1.59,5.71,2.57,12.81,6.84,13.4,22.08,1.1,29.88-7.94,5-16.76,6-25.8,4.47a57,57,0,0,1-9.82-2.78c-13.51-5-13.48-23-3.86-30.22,6.32-4.72,13.05-6.25,20.29-7.38C423.06,549.53,427.09,551,431.54,551Z"/><path class="cls-1" d="M431.54,551c-4.45,0-8.48-1.49-12.38-3.46-10.86-11.2-11.28-24.3-6.23-37.93,2.55-6.88,7.44-12.06,15.51-12.72,8.38-.68,13.93,3.79,18,10.45,5.18,8.55,5.9,17.85,3.28,27.3C447.13,543.79,441.1,549.46,431.54,551Z"/><path class="cls-1" d="M590.24,548.92a8.24,8.24,0,0,0-5.39,1.88c-13.66-.36-22.81-8.85-24.11-22.56-.84-8.88.44-17.27,6.27-24.51,7.65-9.48,21.06-9.27,28.4.46C604.29,516,604.55,538.85,590.24,548.92Z"/><path class="cls-1" d="M523.48,557.3c-.22,5.29-2.1,9.08-6.09,11.87-7.77,5.42-19,4.23-25.1-2.79a13,13,0,0,1-2.94-12.47c.36-1.36,1.25-2.43,2.77-2.3a2.9,2.9,0,0,1,2.66,2.45c.12.51.13,1.05.22,1.56,1.64,8.81,8.63,12.72,16.57,9.26,3.36-1.46,5.74-3.64,5.72-7.64,0-2.58-.56-6.15,3.21-5.82C523.75,551.7,523.25,555.28,523.48,557.3Z"/><path class="cls-1" d="M470.91,658.05c5.12,3.74,11.42,1.2,18,.35,7-.89,12.37,7,10.31,14.3-2.71,9.57-9,16.38-18,20.77a6.36,6.36,0,0,1-6.68-.38,35.7,35.7,0,0,1-15.88-21.68C456.94,664.69,462.67,658.18,470.91,658.05Zm-6.12,11.79c-.18,5.12,7.74,16.53,12.59,18.13a4.35,4.35,0,0,0,3.81-.27c5.88-3.78,10.73-8.41,12.59-15.47.73-2.78.38-5.37-1.9-7.17-2.53-2-6-2.1-8.05-.08-3.81,3.76-6.39,2.29-10.17-.09C469.22,662.1,465,664.87,464.79,669.84Z"/><path class="cls-1" d="M637.17,673.89c-7.83.07-13.67-5.35-13.87-12.88a13.33,13.33,0,0,1,13.18-13.75c7.56,0,12.88,5.58,13.11,13.75C649.82,669,645.16,673.81,637.17,673.89Z"/><path class="cls-1" d="M704.65,642.78a12.79,12.79,0,0,1-12.91,13A13.4,13.4,0,0,1,678,642.56c-.07-7.24,6.21-13.12,13.9-13A12.73,12.73,0,0,1,704.65,642.78Z"/><path class="cls-1" d="M639.61,693.47a13.2,13.2,0,0,1-12.69,13.42c-7.28.18-13.6-6.53-13.58-14.42a11.91,11.91,0,0,1,12.47-12.28C633.36,680.26,639.66,686.32,639.61,693.47Z"/><path class="cls-1" d="M652.65,604c.06,10.28-7,17.36-17.19,17.27-9.54-.09-17.25-7.61-17.16-16.73.09-8.58,7.94-16.46,16.62-16.65C644.37,587.68,652.6,595.16,652.65,604Zm-6.32.26a11,11,0,0,0-11.22-10.77c-5.67.08-10.81,5.61-10.68,11.47s5.35,10.57,11.45,10.5C642.24,615.39,646.41,610.93,646.33,604.27Z"/><path class="cls-1" d="M679.14,600.85c0-8.51,5.62-14.16,14.33-14.3,8.43-.13,14.34,5.82,14.27,14.36-.06,7.44-6.09,13.84-13.19,14C685.35,615.14,679.18,609.51,679.14,600.85Zm5.06-.2c0,5.09,4.37,9,10,8.84,4.64-.1,8.13-3.92,8.12-8.87a8.8,8.8,0,0,0-9.12-8.74C687.47,592.09,684.19,595.3,684.2,600.65Z"/><path class="cls-1" d="M672.73,686.66c-6.43-.48-11.06-6.37-10.38-13.2a11.18,11.18,0,0,1,11.93-9.92,10.93,10.93,0,0,1,9.8,12C683.53,682.92,679.21,687.15,672.73,686.66Z"/><path class="cls-2" d="M464.79,669.84c.18-5,4.43-7.74,8.87-5,3.78,2.38,6.36,3.85,10.17.09,2.05-2,5.52-1.92,8.05.08,2.28,1.8,2.63,4.39,1.9,7.17-1.86,7.06-6.71,11.69-12.59,15.47a4.35,4.35,0,0,1-3.81.27C472.53,686.37,464.61,675,464.79,669.84Z"/><path class="cls-4" d="M646.33,604.27c.08,6.66-4.09,11.12-10.45,11.2-6.1.07-11.32-4.71-11.45-10.5s5-11.39,10.68-11.47A11,11,0,0,1,646.33,604.27Z"/><path class="cls-13" d="M684.2,600.65c0-5.35,3.27-8.56,9-8.77a8.8,8.8,0,0,1,9.12,8.74c0,5-3.48,8.77-8.12,8.87C688.57,609.61,684.21,605.74,684.2,600.65Z"/></svg>